PathFileType	4	(X/Y/Z)	./resultDataOpenSim/trcMotMarkerGrf/sub06/qtm-03-02.trc
DataRate	CameraRate	NumFrames	NumMarkers	Units	OrigDataRate	OrigDataStartFrame	OrigNumFrames
250.000000	250.000000	14	24	m	250.000000	1	502
Frame#	Time	L.Toe.Tip			R.Toe.Tip			L.Ankle.Lat			R.Ankle.Lat			L.Ankle.Med			R.Ankle.Med			L.Heel			R.Heel			L.Knee.Lat			R.Knee.Lat			L.Knee.Med			R.Knee.Med			L.Thigh.Upper			R.Thigh.Upper			L.ASIS			R.ASIS			V.Sacral			L.Acromium			R.Acromium			C7			L.Elbow			R.Elbow			L.Wrist.Lat			R.Wrist.Lat
		X1	Y1	Z1	X2	Y2	Z2	X3	Y3	Z3	X4	Y4	Z4	X5	Y5	Z5	X6	Y6	Z6	X7	Y7	Z7	X8	Y8	Z8	X9	Y9	Z9	X10	Y10	Z10	X11	Y11	Z11	X12	Y12	Z12	X13	Y13	Z13	X14	Y14	Z14	X15	Y15	Z15	X16	Y16	Z16	X17	Y17	Z17	X18	Y18	Z18	X19	Y19	Z19	X20	Y20	Z20	X21	Y21	Z21	X22	Y22	Z22	X23	Y23	Z23	X24	Y24	Z24

1	0	-1.5479424	0.03193335	-0.087050992	-0.96036617	0.098435548	0.099316187	-1.6694371	0.075110048	-0.091197747	-1.0892312	0.080027231	0.10780118	-1.6584354	0.086717897	-0.0076621892	-1.0751071	0.1101515	0.02400374	NaN	NaN	NaN	-1.1274996	0.040456339	0.034044641	-1.5024008	0.41162648	-0.11781789	-1.1868651	0.45714558	0.12214398	-1.5063517	0.41159686	0.0026389811	-1.2041498	0.43624495	-0.0056351499	-1.4044838	0.78451625	-0.18520008	-1.3738927	0.78230334	0.16447171	-1.3189109	0.82326949	-0.14702649	-1.2930306	0.83238837	0.097800364	-1.4879024	0.91039341	-0.0055648781	-1.3388391	1.3134877	-0.19992769	-1.3415941	1.2982098	0.1630724	-1.4133665	1.3479021	-0.018812903	-1.3537284	0.98868386	-0.27152772	-1.4776046	1.0103972	0.21439562	-1.1295754	0.87732519	-0.23729377	-1.3839461	0.78867552	0.23953264
2	0.004	-1.5479564	0.031902929	-0.086984981	-0.94607995	0.10310319	0.098735972	-1.6690007	0.075615309	-0.091314036	-1.0749674	0.080891208	0.10781098	-1.6575218	0.087358425	-0.0079416313	-1.0616464	0.11137981	0.023981845	NaN	NaN	NaN	-1.1121158	0.040347427	0.034298652	-1.4990035	0.41060755	-0.11782999	-1.1801368	0.45558378	0.12205465	-1.5024897	0.41062026	0.0025328493	-1.1974272	0.43416274	-0.0062746519	-1.3994731	0.78284301	-0.18486947	-1.3661522	0.7805868	0.16467767	-1.3133894	0.82137829	-0.14712648	-1.2866019	0.83055367	0.097667782	-1.481827	0.90857288	-0.0046942767	-1.3327346	1.3115761	-0.19987375	-1.3360334	1.2960584	0.16338218	-1.4074666	1.3462195	-0.018934482	-1.3458368	0.98656357	-0.27158583	-1.4724219	1.0084358	0.21440783	-1.121195	0.87693935	-0.23606889	-1.3797517	0.78638308	0.23977958
3	0.008	-1.5479678	0.031874564	-0.086931563	-0.93211943	0.10756726	0.098172489	-1.6685462	0.076157595	-0.09147393	-1.0610306	0.081757264	0.10776327	-1.6567325	0.087964457	-0.0082101559	-1.0484571	0.11261471	0.023923746	NaN	NaN	NaN	-1.0971715	0.040280851	0.034435694	-1.4955004	0.40957196	-0.11786984	-1.1734728	0.45404961	0.12195537	-1.4986478	0.40963852	0.0024258667	-1.1906699	0.4321296	-0.0069027429	-1.3944502	0.78116427	-0.18458413	-1.3587732	0.77881532	0.16482763	-1.3078546	0.81948338	-0.14726256	-1.2801048	0.82870781	0.097530283	-1.4757121	0.90674588	-0.0037366845	-1.3266095	1.3096531	-0.19982288	-1.3304597	1.2939297	0.16369953	-1.4015171	1.3445527	-0.018939046	-1.3379328	0.98446746	-0.27158298	-1.4672966	1.0065948	0.21446661	-1.1128449	0.87651673	-0.23484821	-1.3754843	0.78412726	0.2400346
4	0.012	-1.5479748	0.031846329	-0.08689505	-0.9188043	0.1116128	0.097699967	-1.6680577	0.076767568	-0.09169696	-1.0476254	0.082605916	0.10761836	-1.6561066	0.08855661	-0.008463006	-1.0356872	0.11384216	0.023794536	NaN	NaN	NaN	-1.0828869	0.04027443	0.034398066	-1.4918193	0.40851184	-0.1179513	-1.1668416	0.45257871	0.12185897	-1.4947879	0.40864061	0.0023211791	-1.1838424	0.43017177	-0.0074920545	-1.3893727	0.77946633	-0.1842756	-1.35174	0.77698868	0.16492377	-1.3022825	0.8175983	-0.14741811	-1.2735417	0.82685004	0.097390464	-1.4695152	0.90490661	-0.0026613971	-1.3204432	1.3077268	-0.19975648	-1.3248623	1.2918387	0.16402667	-1.3954967	1.3429107	-0.01880713	-1.3299957	0.98240409	-0.27148572	-1.4622176	1.0048568	0.2145988	-1.1045438	0.87603216	-0.23363341	-1.3711135	0.78190782	0.24030626
5	0.016	-1.5479776	0.031814918	-0.086872182	-0.90632314	0.11512871	0.097343349	-1.6675304	0.077453221	-0.091966604	-1.0348386	0.083390845	0.10735894	-1.655581	0.089197893	-0.0087091169	-1.0233961	0.11502111	0.023570087	NaN	NaN	NaN	-1.0693104	0.040322889	0.034180627	-1.4879292	0.40742699	-0.11807653	-1.1601533	0.45120235	0.12178448	-1.4908693	0.40760796	0.0022214058	-1.1769276	0.42830895	-0.0080200326	-1.3842072	0.77773996	-0.18384481	-1.3448079	0.77514474	0.16500395	-1.2966691	0.81574485	-0.14755188	-1.2669531	0.82499988	0.097247207	-1.4631921	0.90305681	-0.0014648867	-1.3142398	1.3058239	-0.19965395	-1.3192473	1.2897976	0.16436526	-1.3894259	1.3412945	-0.018604901	-1.3220314	0.98037529	-0.27130914	-1.4570916	1.0030979	0.21478652	-1.0963099	0.8754717	-0.23242602	-1.3666507	0.77971332	0.24059662
6	0.02	-1.5479778	0.031781282	-0.086857661	-0.8946302	0.11811617	0.097034016	-1.66697	0.07820107	-0.09224915	-1.0226679	0.084058851	0.10697656	-1.6550846	0.089937515	-0.0089657198	-1.0116152	0.11609437	0.023240653	NaN	NaN	NaN	-1.0564216	0.040413179	0.033797043	-1.4838124	0.4063222	-0.11824622	-1.153324	0.44992366	0.12173632	-1.4869117	0.40651996	0.0021285974	-1.169919	0.42656921	-0.0084860518	-1.378961	0.77600114	-0.18331682	-1.3378184	0.77331957	0.1650946	-1.2910328	0.8139263	-0.14766019	-1.260332	0.82317736	0.097094294	-1.4566558	0.90120164	-6.6768936e-05	-1.3080111	1.3039631	-0.19950512	-1.3136174	1.2878107	0.16472023	-1.383332	1.3396954	-0.018407401	-1.3140615	0.97838438	-0.27110051	-1.4518031	1.0012388	0.21497901	-1.0881462	0.8748298	-0.23122924	-1.3620931	0.77754854	0.24090166
7	0.024	-1.5479783	0.031749767	-0.086847735	-0.88357023	0.12057966	0.096689922	-1.6663771	0.079001207	-0.092530667	-1.0110854	0.084573395	0.1064711	-1.6546203	0.090790449	-0.0092553752	-1.00038	0.11700603	0.022812372	NaN	NaN	NaN	-1.044209	0.040523823	0.033272223	-1.4794692	0.40520784	-0.11847106	-1.1463205	0.44872711	0.12170816	-1.4829683	0.40537362	0.0020441494	-1.1628258	0.42498357	-0.0088917789	-1.3736686	0.77428774	-0.18282129	-1.3307596	0.77154035	0.16520294	-1.2853795	0.81213686	-0.14775619	-1.2536444	0.82139105	0.096934555	-1.4498599	0.89936225	0.0016058432	-1.3017594	1.3021513	-0.19930081	-1.3079626	1.2858813	0.16509131	-1.377231	1.3381018	-0.018251192	-1.3061075	0.97644182	-0.27089245	-1.4463117	0.99931243	0.21514221	-1.0800496	0.87411017	-0.23004845	-1.3574158	0.77543131	0.24122018
8	0.028	-1.5479812	0.031722634	-0.0868401	-0.87303086	0.12250516	0.096255013	-1.665736	0.079863465	-0.09283059	-1.0000728	0.084920347	0.10586528	-1.6541893	0.091749173	-0.0096024936	-0.98971008	0.11771639	0.022304953	NaN	NaN	NaN	-1.0326898	0.040613126	0.032651047	-1.4749274	0.40409632	-0.11876878	-1.1391539	0.44760322	0.12169283	-1.4790018	0.40418785	0.0019549271	-1.1556658	0.42357743	-0.0092305333	-1.3683429	0.77262548	-0.18243319	-1.3236455	0.76982185	0.16532763	-1.2796646	0.81038689	-0.14781249	-1.2468791	0.81964549	0.096777459	-1.4429799	0.8976026	0.0033492332	-1.2954805	1.300397	-0.19903697	-1.3022552	1.284015	0.16547004	-1.3711235	1.3365093	-0.018123882	-1.2981821	0.97456646	-0.27068679	-1.4406534	0.99739465	0.21528071	-1.0720177	0.87331904	-0.22888994	-1.3526036	0.77337588	0.24155625
9	0.032	-1.5479862	0.031699125	-0.086834463	-0.86297807	0.12389484	0.095689751	-1.6650225	0.080805994	-0.093180463	-0.98962509	0.08509497	0.10520136	-1.6536941	0.092778041	-0.010010884	-0.97960404	0.11819861	0.021735143	NaN	NaN	NaN	-1.021901	0.040619963	0.031994203	-1.4702248	0.40300226	-0.11913721	-1.1318457	0.44654669	0.12168031	-1.4748234	0.40298725	0.0018211503	-1.1484441	0.42237271	-0.0095087461	-1.3629624	0.77101915	-0.18211543	-1.316492	0.76816773	0.16545536	-1.2738386	0.8086923	-0.14781927	-1.2400514	0.81794461	0.096624086	-1.4363762	0.89600916	0.0047239217	-1.2891728	1.2987087	-0.19872125	-1.2964635	1.2822126	0.16585117	-1.3649937	1.3349253	-0.017970769	-1.2902922	0.97277811	-0.27047626	-1.4348741	0.99553864	0.21541597	-1.0640503	0.87246063	-0.22776141	-1.347662	0.77138825	0.24191311
10	0.036	-1.5479851	0.031676427	-0.086838561	-0.85342072	0.12477619	0.094970229	-1.664223	0.081844912	-0.093600056	-0.97974705	0.085085848	0.10450943	-1.6530577	0.093857092	-0.010470438	-0.97005671	0.11842908	0.021099689	NaN	NaN	NaN	-1.0118801	0.040484348	0.031342014	-1.4653886	0.40194044	-0.11953819	-1.1244124	0.44554391	0.12165157	-1.4702285	0.40178812	0.0015990591	-1.1411498	0.42138677	-0.0097535385	-1.3575013	0.76946853	-0.18180096	-1.3093377	0.76658998	0.1655695	-1.2679379	0.80704676	-0.14790806	-1.2331809	0.81629225	0.09646696	-1.4302715	0.89459913	0.0055005783	-1.2828367	1.2970848	-0.19836389	-1.2905832	1.2804768	0.16623953	-1.3588246	1.3333658	-0.017740297	-1.2824389	0.97108193	-0.27024485	-1.4289996	0.99376509	0.21556112	-1.0561524	0.87154015	-0.22666691	-1.3426005	0.76946952	0.24228933
11	0.04	-1.5479579	0.031648606	-0.086872093	-0.84437787	0.12518663	0.094086624	-1.6633438	0.082993726	-0.094088164	-0.97044725	0.084872444	0.10378082	-1.6523145	0.095020184	-0.010979728	-0.96106539	0.1183864	0.020377191	NaN	NaN	NaN	-1.0026294	0.040161261	0.030679162	-1.4604299	0.40091736	-0.11991887	-1.1168677	0.44458634	0.12158465	-1.4652019	0.40059014	0.001280624	-1.1337742	0.42062313	-0.0099835297	-1.3519447	0.76796857	-0.18145669	-1.3022071	0.76511149	0.16567319	-1.2620668	0.80543239	-0.14830014	-1.2262665	0.81469822	0.09630145	-1.4245845	0.89328772	0.0058617138	-1.2764725	1.2955176	-0.19797434	-1.2846362	1.2788187	0.16664343	-1.3526109	1.3318484	-0.017417684	-1.2746158	0.96946753	-0.26995564	-1.4230597	0.99207522	0.21570583	-1.0483333	0.870563	-0.22560289	-1.3374133	0.76761951	0.24268206
12	0.044	-1.5478833	0.031609658	-0.086953792	-0.83586775	0.12515342	0.093032414	-1.6623964	0.084257162	-0.094625517	-0.96173151	0.084442276	0.10297743	-1.6514018	0.096256681	-0.011517318	-0.95263125	0.11805584	0.019544701	NaN	NaN	NaN	-0.99407185	0.039613165	0.029949158	-1.4553402	0.39992643	-0.12024474	-1.1092187	0.44368831	0.12146381	-1.459903	0.39938275	0.00089263356	-1.1263222	0.42006665	-0.010192192	-1.3462824	0.76650693	-0.18107632	-1.2950964	0.76374834	0.16578107	-1.2562526	0.80385775	-0.14902923	-1.2192721	0.8131803	0.096132491	-1.4190669	0.89198756	0.0061486926	-1.2700807	1.294007	-0.19756283	-1.2786364	1.2772451	0.16706413	-1.3463503	1.3303848	-0.016998784	-1.2668133	0.96792451	-0.2695641	-1.4171273	0.99046228	0.21580885	-1.0406013	0.86953289	-0.22456238	-1.3320803	0.76584244	0.24309223
13	0.048	-1.5477611	0.03156216	-0.087076994	-0.82790576	0.12468582	0.091804246	-1.6613721	0.085629035	-0.095194632	-0.95359829	0.083810395	0.10205805	-1.6501386	0.097495413	-0.012047812	-0.94475976	0.1174358	0.018596441	NaN	NaN	NaN	-0.98609855	0.038822031	0.029119115	-1.4500931	0.39895182	-0.12051544	-1.1014723	0.44287089	0.12127576	-1.4544146	0.39816847	0.00045669706	-1.1188029	0.41969248	-0.010375065	-1.3405034	0.76507653	-0.18065897	-1.2879743	0.76251121	0.165899	-1.2503871	0.80236538	-0.14980844	-1.2121523	0.81176008	0.095970981	-1.4134069	0.89069201	0.0065948526	-1.2636565	1.2925632	-0.19712947	-1.2725771	1.275749	0.16749608	-1.3400425	1.3289757	-0.016495487	-1.2590292	0.96645232	-0.26904555	-1.4112964	0.98891981	0.21581567	-1.0329529	0.8684552	-0.22353949	-1.3265817	0.76414911	0.243524
14	0.052	-1.5476154	0.031519764	-0.0872085	-0.82050227	0.1237856	0.090419047	-1.6602412	0.087101501	-0.09579947	-0.94604053	0.083004908	0.10099717	-1.6485453	0.098762216	-0.012596563	-0.9374545	0.1165362	0.017552317	NaN	NaN	NaN	-0.9787073	0.037816849	0.028233626	-1.4446591	0.39797627	-0.12076384	-1.093643	0.44214128	0.12100495	-1.4486589	0.39696774	-2.8274832e-05	-1.1112235	0.41947634	-0.010547497	-1.334596	0.76368422	-0.18020311	-1.2807837	0.76141099	0.16603019	-1.244349	0.80099928	-0.15031237	-1.2048941	0.81045629	0.095822986	-1.4071901	0.88943541	0.0072490553	-1.2571895	1.2911956	-0.19666097	-1.2664406	1.2743212	0.16793801	-1.3337032	1.3276116	-0.015986008	-1.25128	0.96506322	-0.26842399	-1.4055676	0.98745007	0.21571547	-1.0253716	0.86733681	-0.22252856	-1.3209154	0.76255075	0.24397909
